# xmcd
#
# Track frame offsets: 
#        150
#        15997
#        29127
#        47544
#        58723
#        73489
#        87130
#        103788
#        113951
#        127956
#        144355
#
# Disc length: 2149 seconds
#
# Revision: 0
# Processed by: cddbd v1.5.2PL0 Copyright (c) Steve Scherf et al.
# Submitted via: ExactAudioCopyFreeDBPlugin 1.0
#
DISCID=9708630b
DTITLE=Jo and Lazy Fellow - Studio and Radio Sessions
DYEAR=2014
DGENRE=Folk
TTITLE0=Jackson
TTITLE1=Jolene
TTITLE2=Supposed
TTITLE3=You Are My Baby
TTITLE4=Norwegian Wood
TTITLE5=Better Go Home
TTITLE6=Long Time Gone
TTITLE7=Give It Up Or Let Me Go
TTITLE8=Silver Threads And Golden Needles
TTITLE9=Those Memories Of You
TTITLE10=My Own Place
EXTD=
EXTT0=
EXTT1=
EXTT2=
EXTT3=
EXTT4=
EXTT5=
EXTT6=
EXTT7=
EXTT8=
EXTT9=
EXTT10=
PLAYORDER=
